<?xml version="1.0" encoding="UTF-8" standalone="no"?>
<!-- Created with Inkscape (http://www.inkscape.org/) -->

<svg
   xmlns:dc="http://purl.org/dc/elements/1.1/"
   xmlns:cc="http://creativecommons.org/ns#"
   xmlns:rdf="http://www.w3.org/1999/02/22-rdf-syntax-ns#"
   xmlns:svg="http://www.w3.org/2000/svg"
   xmlns="http://www.w3.org/2000/svg"
   xmlns:sodipodi="http://sodipodi.sourceforge.net/DTD/sodipodi-0.dtd"
   xmlns:inkscape="http://www.inkscape.org/namespaces/inkscape"
   width="32"
   height="32"
   viewBox="0 0 8.4666666 8.4666666"
   version="1.1"
   id="svg8"
   inkscape:version="0.92.5 (2060ec1f9f, 2020-04-08)"
   sodipodi:docname="ecoledirecte.svg">
  <defs
     id="defs2" />
  <sodipodi:namedview
     id="base"
     pagecolor="#ffffff"
     bordercolor="#666666"
     borderopacity="1.0"
     inkscape:pageopacity="0.0"
     inkscape:pageshadow="2"
     inkscape:zoom="5.916495"
     inkscape:cx="4.4575858"
     inkscape:cy="5.342461"
     inkscape:document-units="mm"
     inkscape:current-layer="layer1"
     showgrid="false"
     units="px"
     inkscape:snap-global="true"
     inkscape:snap-bbox="true"
     inkscape:bbox-nodes="true"
     inkscape:window-width="1920"
     inkscape:window-height="1013"
     inkscape:window-x="0"
     inkscape:window-y="0"
     inkscape:window-maximized="1" />
  <metadata
     id="metadata5">
    <rdf:RDF>
      <cc:Work
         rdf:about="">
        <dc:format>image/svg+xml</dc:format>
        <dc:type
           rdf:resource="http://purl.org/dc/dcmitype/StillImage" />
        <dc:title></dc:title>
      </cc:Work>
    </rdf:RDF>
  </metadata>
  <g
     inkscape:label="Calque 1"
     inkscape:groupmode="layer"
     id="layer1"
     transform="translate(0,-288.53334)">
    <path
       style="fill:#000000;fill-opacity:0.98161763;stroke-width:0.0186134"
       d="m 3.5319456,295.4906 c -0.406015,-0.0275 -0.8806,-0.11144 -1.265432,-0.22388 -0.19827,-0.0579 -0.199766,-0.0588 -0.211813,-0.12301 -0.03534,-0.1884 0.102426,-1.03436 0.455544,-2.79721 0.081,-0.40438 0.152723,-0.7664 0.159381,-0.80449 0.01749,-0.10006 0.110364,-0.19008 0.234282,-0.22709 0.508396,-0.15184 1.689121,-0.16141 2.26123,-0.0183 0.15422,0.0386 0.251778,0.11871 0.250505,0.20578 -0.0016,0.10891 -0.05756,0.43348 -0.12456,0.52508 -0.07293,0.0997 -0.121806,0.12907 -0.22249,0.10158 -0.228234,-0.0623 -0.473699,-0.0744 -0.712613,-0.0773 -0.233316,-0.003 -0.56336,0.0273 -0.697593,0.0581 -0.249004,0.0571 -0.240564,0.0429 -0.327376,0.48816 -0.0399,0.20467 -0.07717,0.39097 -0.08281,0.41401 l -0.01026,0.0419 h 0.508279 c 0.490496,0 0.511137,0.001 0.589953,0.0419 0.191746,0.0983 0.198335,0.33117 0.01325,0.46828 -0.05065,0.0375 -0.07336,0.0389 -0.623549,0.0389 h -0.570983 l -0.06827,0.39089 c -0.08374,0.47948 -0.08466,0.49868 -0.02597,0.54485 0.105062,0.0826 0.934155,0.11812 1.449795,0.062 0.232235,-0.0253 0.239777,-0.0249 0.276128,0.0114 0.03227,0.0323 0.03477,0.0468 0.01829,0.10646 -0.0389,0.14089 0.0042,0.15726 0.24762,0.094 0.403944,-0.10496 0.913881,-0.33393 1.268402,-0.56954 0.269762,-0.17929 0.631196,-0.53719 0.767189,-0.7597 0.201188,-0.32918 0.275208,-0.59722 0.259696,-0.94042 -0.01839,-0.40694 -0.168825,-0.72224 -0.507438,-1.06357 -0.470713,-0.47449 -1.105759,-0.75941 -1.995259,-0.8952 -0.316882,-0.0484 -1.053241,-0.0434 -1.392379,0.009 -0.505103,0.0786 -0.887119,0.19753 -1.321551,0.41131 -0.88425,0.43513 -1.62392401,1.21292 -2.04819101,2.15374 L 9.2589761e-5,293.34198 5.8976106e-7,293.2363 C -5.2641024e-4,292.61875 0.35115059,291.92261 0.95252059,291.35081 c 0.71897101,-0.68362 1.69642801,-1.13188 2.80890901,-1.28815 0.327483,-0.046 1.213678,-0.0457 1.5433,4.9e-4 0.79099,0.11089 1.436298,0.32853 1.982327,0.66859 0.715438,0.44555 1.141518,1.08117 1.177103,1.75598 0.09088,1.72332 -2.302802,3.1805 -4.932222,3.00254 z"
       id="path826"
       inkscape:connector-curvature="0"
       sodipodi:nodetypes="cccsccccssacsccsccscssccssssssscscccsscsscc" />
  </g>
</svg>
