<?xml version="1.0" encoding="UTF-8" standalone="no"?>
<!-- Created with Inkscape (http://www.inkscape.org/) -->

<svg
   xmlns:dc="http://purl.org/dc/elements/1.1/"
   xmlns:cc="http://creativecommons.org/ns#"
   xmlns:rdf="http://www.w3.org/1999/02/22-rdf-syntax-ns#"
   xmlns:svg="http://www.w3.org/2000/svg"
   xmlns="http://www.w3.org/2000/svg"
   xmlns:sodipodi="http://sodipodi.sourceforge.net/DTD/sodipodi-0.dtd"
   xmlns:inkscape="http://www.inkscape.org/namespaces/inkscape"
   width="32"
   height="32"
   viewBox="0 0 8.4666665 8.4666669"
   version="1.1"
   id="svg8"
   inkscape:version="0.92.5 (2060ec1f9f, 2020-04-08)"
   sodipodi:docname="huawei.svg">
  <defs
     id="defs2" />
  <sodipodi:namedview
     id="base"
     pagecolor="#ffffff"
     bordercolor="#666666"
     borderopacity="1.0"
     inkscape:pageopacity="0.0"
     inkscape:pageshadow="2"
     inkscape:zoom="11.2"
     inkscape:cx="28.220615"
     inkscape:cy="13.316278"
     inkscape:document-units="mm"
     inkscape:current-layer="layer1"
     showgrid="false"
     units="px"
     inkscape:window-width="1600"
     inkscape:window-height="864"
     inkscape:window-x="0"
     inkscape:window-y="0"
     inkscape:window-maximized="1" />
  <metadata
     id="metadata5">
    <rdf:RDF>
      <cc:Work
         rdf:about="">
        <dc:format>image/svg+xml</dc:format>
        <dc:type
           rdf:resource="http://purl.org/dc/dcmitype/StillImage" />
        <dc:title></dc:title>
      </cc:Work>
    </rdf:RDF>
  </metadata>
  <g
     inkscape:label="Calque 1"
     inkscape:groupmode="layer"
     id="layer1"
     transform="translate(0,-288.53332)">
    <g
       id="g884"
       style="fill:#000000;fill-opacity:1"
       transform="translate(-6.6652771,6.9217233)">
      <path
         style="fill:#000000;fill-opacity:1;stroke-width:0.0086397"
         id="path817"
         d="m 10.284099,282.61299 c 0,0 -0.6756243,-0.032 -1.1067453,0.54948 -0.4311211,0.58232 -0.1071323,1.47134 0.096765,1.92925 0.2047609,0.45877 1.2829953,2.25755 1.3227373,2.29729 0.03974,0.0398 0.0864,0.0233 0.08899,-0.013 0.0026,-0.0354 0.123548,-2.61437 0.02592,-3.25025 -0.09676,-0.63502 -0.383602,-1.44283 -0.427665,-1.51281 z"
         inkscape:connector-curvature="0" />
      <path
         style="fill:#000000;fill-opacity:1;stroke-width:0.0086397"
         id="path819"
         d="m 7.9479243,283.81218 c -0.076893,0.009 -0.631562,0.58663 -0.6816723,1.15081 -0.05011,0.56503 0.1814337,0.94086 0.8268193,1.39012 0.6505694,0.4821 2.1962117,1.36853 2.2247227,1.29164 0.02851,-0.076 -0.5987311,-1.24066 -1.1119293,-2.08735 -0.5140622,-0.84669 -1.181047,-1.75386 -1.2579404,-1.74522 z"
         inkscape:connector-curvature="0" />
      <path
         style="fill:#000000;fill-opacity:1;stroke-width:0.0086397"
         id="path821"
         d="m 8.1561411,289.02192 c 0.4674078,0.21858 1.1965985,-0.27215 1.3979035,-0.41471 0.1874815,-0.14946 0.5339334,-0.42507 0.5339334,-0.42507 l -2.6506599,0.0743 c 0,0 0.2505513,0.54689 0.718823,0.76548 z"
         inkscape:connector-curvature="0" />
      <path
         style="fill:#000000;fill-opacity:1;stroke-width:0.0086397"
         id="path823"
         d="m 8.2226668,286.78424 c -0.4743195,-0.24796 -1.4506056,-0.81818 -1.4886203,-0.80695 -0.038015,0.0112 -0.1848896,0.71968 0.1200918,1.25448 0.3049814,0.53394 0.8993928,0.69809 1.1724073,0.74129 0.3067094,0.0458 2.1098144,0.0251 2.0977194,-0.013 -0.01123,-0.0328 -1.4272787,-0.92791 -1.9015982,-1.17586 z"
         inkscape:connector-curvature="0" />
      <path
         style="fill:#000000;fill-opacity:1;stroke-width:0.0086397"
         id="path825"
         d="m 12.61941,283.16334 c -0.431121,-0.58232 -1.106745,-0.54949 -1.106745,-0.54949 -0.04406,0.07 -0.331765,0.8778 -0.42853,1.51368 -0.09676,0.63588 0.02419,3.21483 0.02678,3.25025 0.0026,0.0354 0.04925,0.0527 0.08899,0.013 0.03974,-0.0397 1.117978,-1.83939 1.322738,-2.29729 0.204761,-0.45964 0.527886,-1.34866 0.09676,-1.93011 z"
         inkscape:connector-curvature="0" />
      <path
         style="fill:#000000;fill-opacity:1;stroke-width:0.0086397"
         id="path827"
         d="m 15.062717,285.97729 c -0.03801,-0.0112 -1.0143,0.55899 -1.48862,0.80695 -0.47432,0.24795 -1.890366,1.14303 -1.900734,1.17586 -0.0121,0.038 1.79101,0.0579 2.097719,0.013 0.273015,-0.0441 0.867426,-0.20735 1.172407,-0.74129 0.304982,-0.5348 0.157243,-1.24325 0.119228,-1.25448 z"
         inkscape:connector-curvature="0" />
      <path
         style="fill:#000000;fill-opacity:1;stroke-width:0.0086397"
         id="path829"
         d="m 12.242719,288.60721 c 0.201305,0.14256 0.930496,0.63329 1.397904,0.41471 0.467407,-0.21859 0.718823,-0.76548 0.718823,-0.76548 l -2.65066,-0.0743 c 8.64e-4,0 0.347316,0.27561 0.533933,0.42507 z"
         inkscape:connector-curvature="0" />
      <path
         style="fill:#000000;fill-opacity:1;stroke-width:0.0086397"
         id="path831"
         d="m 14.530512,284.96385 c -0.05011,-0.56504 -0.604779,-1.14217 -0.681673,-1.15081 -0.07689,-0.009 -0.744742,0.89853 -1.25794,1.74522 -0.513198,0.84669 -1.14044,2.01132 -1.111929,2.08735 0.02851,0.076 1.574153,-0.8104 2.224722,-1.29163 0.645386,-0.45013 0.87693,-0.82596 0.82682,-1.39013 z"
         inkscape:connector-curvature="0" />
    </g>
  </g>
</svg>
