<?xml version="1.0" encoding="UTF-8" standalone="no"?>
<!-- Created with Inkscape (http://www.inkscape.org/) -->

<svg
   xmlns:dc="http://purl.org/dc/elements/1.1/"
   xmlns:cc="http://creativecommons.org/ns#"
   xmlns:rdf="http://www.w3.org/1999/02/22-rdf-syntax-ns#"
   xmlns:svg="http://www.w3.org/2000/svg"
   xmlns="http://www.w3.org/2000/svg"
   xmlns:sodipodi="http://sodipodi.sourceforge.net/DTD/sodipodi-0.dtd"
   xmlns:inkscape="http://www.inkscape.org/namespaces/inkscape"
   width="32"
   height="32"
   viewBox="0 0 8.4666666 8.4666666"
   version="1.1"
   id="svg8"
   inkscape:version="0.92.5 (2060ec1f9f, 2020-04-08)"
   sodipodi:docname="education-nationale.svg">
  <defs
     id="defs2">
    <style
       id="style815">.cls-1{fill:none;}.cls-2{fill:#1d1e1c;}.cls-3{clip-path:url(#clip-path);}.cls-4{fill:#000091;}.cls-5{fill:#e1000f;}.cls-6{fill:#9c9c9a;}</style>
  </defs>
  <sodipodi:namedview
     id="base"
     pagecolor="#ffffff"
     bordercolor="#666666"
     borderopacity="1.0"
     inkscape:pageopacity="0.0"
     inkscape:pageshadow="2"
     inkscape:zoom="15.839192"
     inkscape:cx="12.076315"
     inkscape:cy="16.829951"
     inkscape:document-units="px"
     inkscape:current-layer="layer1"
     showgrid="false"
     units="px"
     inkscape:window-width="1600"
     inkscape:window-height="864"
     inkscape:window-x="0"
     inkscape:window-y="0"
     inkscape:window-maximized="1" />
  <metadata
     id="metadata5">
    <rdf:RDF>
      <cc:Work
         rdf:about="">
        <dc:format>image/svg+xml</dc:format>
        <dc:type
           rdf:resource="http://purl.org/dc/dcmitype/StillImage" />
        <dc:title></dc:title>
      </cc:Work>
    </rdf:RDF>
  </metadata>
  <g
     inkscape:label="Calque 1"
     inkscape:groupmode="layer"
     id="layer1"
     transform="translate(0,-288.53334)">
    <path
       style="opacity:1;fill:#000000;fill-opacity:1;fill-rule:nonzero;stroke:none;stroke-width:0.29732919;stroke-linecap:square;stroke-linejoin:miter;stroke-miterlimit:4;stroke-dasharray:none;stroke-opacity:1;paint-order:fill markers stroke"
       d="m 4.7632785,289.58724 c -0.1090524,0.0351 -0.2161047,0.0761 -0.320667,0.12293 -0.1370931,0.0529 -0.2610758,0.13494 -0.3633681,0.24044 -0.1054823,0.11163 -0.1856641,0.24468 -0.2350752,0.39011 -0.1435631,0.0992 -0.2594157,0.23349 -0.3366274,0.39001 -0.1421331,0.1753 -0.227825,0.38954 -0.2457754,0.6145 0.026701,0.1977 0.074802,0.37936 0.1122325,0.5824 -0.004,0.0697 -3.4e-4,0.13953 0.0106,0.20843 0.037401,0.0695 0.0161,0.18163 0.037401,0.21903 0.0214,0.0374 0.0107,0.10689 0.058801,0.10689 v 0.0748 h 0.037401 v 0.0428 c 0.1066724,0.1097 0.1999445,0.23167 0.2778762,0.36336 0.026701,0.0641 -0.1229027,0.0267 -0.181684,0 -0.1077124,-0.0652 -0.2049846,-0.14633 -0.2885764,-0.24052 0.048101,0.0855 0.181724,0.25647 0.133643,0.25647 -0.048101,0 -0.1550335,-0.0267 -0.1550335,0 0,0.0267 0.074802,0.12289 0,0.0748 -0.074802,-0.0481 -0.1709437,-0.0374 -0.2190348,-0.0481 -0.048101,-0.0107 -0.058801,-0.11224 -0.1229427,-0.11224 -0.1510734,-0.0375 -0.3046067,-0.0643 -0.4594602,-0.0801 -0.2125346,-0.0323 -0.4287094,-0.0323 -0.6412441,0 -0.1999444,0.0339 -0.3753683,0.15282 -0.4808606,0.32602 v 0.15494 c 3.5e-4,4e-5 5.4e-4,-4e-5 8.6e-4,0 0.029801,-0.0242 0.061701,-0.0457 0.095302,-0.0642 h 0.037401 c -5e-5,9.2e-4 -10e-5,0.002 -1.9e-4,0.003 0.0167,-0.009 0.036901,-0.0179 0.064301,-0.0241 0.1175526,-0.0267 0.2297751,-0.0962 0.3526678,-0.0962 0.1739039,-0.049 0.3536678,-0.0742 0.5343518,-0.0748 0.040801,-0.005 0.082102,-0.005 0.1229427,0 -0.2122947,0.004 -0.4222193,0.0452 -0.6198437,0.12284 -0.1442031,0.0253 -0.2855863,0.0647 -0.4221193,0.11758 0.315287,-0.009 0.6298039,0.0359 0.9297206,0.13354 0.1078923,0.0357 0.2103546,0.0861 0.3045267,0.14969 0.048101,0.0321 0.074802,0.0695 0.1229327,0.0962 0.064001,0.0315 0.1390631,0.0315 0.2030845,0 h 0.032001 c 0.183924,-0.0286 0.3561278,-0.10819 0.4970009,-0.22983 -0.0147,0.10438 -0.051101,0.20451 -0.1068923,0.29392 v 0.0481 h 0.026801 0.0213 c -0.058501,0.007 -0.1129524,0.0335 -0.1549334,0.0748 0,0 0.064201,-0.0374 0.037401,0 -0.026701,0.0374 -0.074902,0.0374 -0.074902,0.0374 v 0.24579 c -0.037401,0 -0.1228827,-0.005 -0.074802,0.0321 0.048101,0.0374 0.085502,0 0.133633,0 -0.133583,0.0481 -0.2404753,0.12288 -0.3740583,0.16028 -0.026701,0 -0.064101,-5e-5 -0.026801,0.0374 0.037401,0.0374 0.064101,0 0.1015422,0 -0.181674,0.10153 -0.3526778,0.18706 -0.5343518,0.29393 -0.004,0.0158 -0.004,0.0323 0,0.048 h -0.053401 c -0.032101,0.0107 -0.032101,0.0749 -0.032101,0.0749 0.0189,0.0103 0.041201,0.0135 0.063201,0.0138 0.004,-0.005 0.009,-0.01 0.0169,-0.0138 h 0.037401 0.048001 c -0.0109,0 -0.056101,0.0142 -0.1024023,0.0138 -0.02,0.0226 -0.0125,0.0505 -0.0232,0.0587 0.2495755,-0.009 0.4960109,-0.0587 0.7295061,-0.1473 0.2021245,-0.0981 0.3834985,-0.23414 0.5342518,-0.40072 0.002,0.009 0.002,0.0179 0,0.0267 -0.032001,0.11406 -0.1040523,0.21273 -0.2029845,0.27788 -0.074802,0.0374 -0.1229027,0.0961 -0.181684,0.12283 l -0.1122325,0.0694 c -0.4488399,0.16031 -0.9778216,0.0855 -1.3678802,0.39012 -0.0214,0.0214 -0.069501,0.0587 -0.069501,0.0587 0.01,0.006 0.0221,0.006 0.032001,0 0.058401,-0.0425 0.1233727,-0.075 0.1923842,-0.0962 -0.048101,0.0267 -0.090802,0.0801 -0.138893,0.0801 -0.032901,0.0171 -0.062001,0.0408 -0.085502,0.0695 v 0.0266 0.0267 c 0.042701,0.005 0.069501,-0.0748 0.096202,-0.0748 l 0.058801,-0.0428 c -0.002,0.0106 -0.002,0.0215 0,0.0321 -0.072302,0.0433 -0.1403231,0.0933 -0.2030845,0.14959 -0.0195,0.0218 -0.037301,0.045 -0.053401,0.0694 l -0.037401,0.0588 -0.032001,0.048 h 0.048101 l 0.2564756,-0.24042 c 0.061501,-0.0608 0.1296429,-0.11457 0.2030845,-0.16029 0.030301,-0.0186 0.057401,-0.0421 0.080102,-0.0694 0.070802,-0.0394 0.1461432,-0.0699 0.2243849,-0.0908 0.1440932,-0.0353 0.2905165,-0.0603 0.4381597,-0.0748 0.1011222,0.013 0.2034945,0.013 0.3046167,0 0.074702,-0.0238 0.1479033,-0.0524 0.2190349,-0.0855 v 0.0641 c 0.181674,-0.0748 0.3152369,-0.22981 0.4969109,-0.29393 h 0.058801 c 0.1122025,-0.0962 0.2297151,-0.18168 0.3900186,-0.18168 l -0.1228427,0.0962 c -0.026701,0.0267 -0.058801,0.0535 0,0.0267 0.058801,-0.0267 0.1549335,-0.10687 0.1549335,-0.0962 v 0.048 c -0.047301,0.032 -0.092002,0.0677 -0.133633,0.10689 -0.1459032,0.12631 -0.2816762,0.26388 -0.406069,0.41142 -0.069501,0.0748 -0.138873,0.14965 -0.2083346,0.21377 l -0.0161,-0.005 c -0.1914242,0.14389 -0.3995488,0.2641 -0.6198437,0.35802 -0.2383453,0.0982 -0.4689003,0.21426 -0.6896652,0.34732 h 4.9590394 l -0.2885663,-0.14423 c -0.2671759,-0.11757 -0.6678948,-0.25123 -0.6678948,-0.25123 -0.080302,-0.18397 -0.080302,-0.39308 0,-0.57705 0.0224,-0.076 0.052901,-0.14945 0.090802,-0.21904 0.028301,-0.0505 0.060401,-0.0988 0.096102,-0.14433 v -0.032 c 0.043001,-0.0482 0.091402,-0.0913 0.1443331,-0.12828 0.054801,-0.0241 0.1121725,-0.042 0.1709838,-0.0534 0.2076546,0.0127 0.4145392,0.0359 0.6198537,0.0694 0.0247,0.004 0.048301,0.0133 0.069401,0.0267 0.075702,0.0167 0.1540634,0.0167 0.2297251,0 0.099002,-0.0197 0.181414,-0.088 0.2191348,-0.18169 0.039601,-0.0847 0.039601,-0.18252 0,-0.26717 -0.074802,-0.11221 0.080102,-0.15502 0.1174926,-0.21914 0.037401,-0.0641 -0.016,-0.13891 -0.032001,-0.16028 -0.016,-0.0214 -0.085502,-0.0106 -0.085502,-0.048 0.085502,-0.0374 0.1549335,-0.16035 0.1549335,-0.21913 0,-0.0588 -0.085502,-0.16025 0,-0.21368 0.085502,-0.0534 0.1870141,0.0213 0.2511355,-0.12294 0.064101,-0.14427 -0.069401,-0.26712 -0.1442432,-0.39002 -0.040901,-0.0666 -0.085502,-0.13081 -0.1336329,-0.19238 -0.055001,-0.0796 -0.099802,-0.16579 -0.133543,-0.25648 -0.048101,-0.0962 0,-0.1817 0,-0.27787 0.004,-0.18137 -0.023401,-0.36206 -0.080102,-0.53435 -0.037401,-0.0855 -0.053401,-0.18168 -0.085502,-0.26719 -0.0123,-0.0516 -0.034001,-0.10055 -0.064201,-0.14423 -0.0107,-0.0275 -0.0107,-0.058 0,-0.0855 l 0.1496833,-0.12294 c 0.032601,-0.0652 0.009,-0.14445 -0.053501,-0.18159 -0.085502,-0.0374 -0.069402,0.10679 -0.133543,0.10679 h -0.032101 c -0.016,-0.0321 0.032101,-0.032 0.032101,-0.0694 0,-0.0374 0.048101,-0.0374 0,-0.0374 -0.048101,0 -0.1068923,-0.0374 -0.1068923,-0.0374 -0.1216827,-0.15445 -0.2875564,-0.26814 -0.4755105,-0.32592 0.047901,0.005 0.096302,0.005 0.1442431,0 0.083402,0.027 0.1731039,0.027 0.2564757,0 0.058801,-0.0267 0.069502,-0.13359 0.096202,-0.18168 0.026701,-0.0481 -0.0107,-0.12288 -0.037501,-0.16028 -0.059801,-0.084 -0.1409431,-0.15041 -0.2350752,-0.19239 l -0.1763339,-0.0908 -0.064101,-0.0321 z m -2.3621721,6.35864 z m -0.8868296,-2.73309 c -0.054901,0.0305 -0.067702,0.0691 -0.1324929,0.0614 -0.097002,0.0775 -0.1697138,0.18142 -0.2092846,0.29918 h 0.2671759 c -0.044701,0.0248 -0.093602,0.0411 -0.1442432,0.0481 -0.058801,0.005 -0.058801,0.0588 -0.058801,0.0588 -0.021501,0.009 -0.041401,0.0217 -0.058701,0.0374 0.048101,0 0.1442332,-0.0321 0.1442332,0 0,0.0321 0.037401,0.032 0.037401,0.032 -0.054501,0.0193 -0.098802,0.0598 -0.1229427,0.11224 0,0.0802 -0.080202,0.10685 -0.096202,0.15494 v 0.0855 c -0.1285529,0.0921 -0.24676546,0.19779 -0.35256779,0.31532 -0.0267006,0.0374 -0.0855019,0.0855 -0.0855019,0.0855 0.1496133,-0.0534 0.30987679,-0.0428 0.40605899,-0.0642 0.096202,-0.0214 0.1656336,-0.10689 0.2511355,-0.10689 l 0.1977244,-0.048 h -0.0214 l 0.090802,-0.12819 c 0.050101,0.0266 0.1101624,0.0266 0.1602835,0 0.038001,-0.0139 0.079602,-0.0139 0.1175926,0 v -0.0374 c 0.033401,0.008 0.068102,0.008 0.1014423,0 0.2874763,-0.0504 0.5675325,-0.13656 0.8336184,-0.25648 -0.317637,-0.18816 -0.6653847,-0.32004 -1.0279127,-0.38982 -0.0112,-1e-4 -0.022801,-0.004 -0.034501,-0.008 -0.0127,-0.003 -0.0255,-0.006 -0.038301,-0.009 0.0129,0 0.0256,0.004 0.038301,0.009 0.0115,0.002 0.023,0.005 0.034501,0.008 0.0118,9e-5 0.0232,-0.004 0.034001,-0.0162 -0.058801,-0.0588 -0.2029644,-0.0588 -0.1922842,-0.0588 h 0.048101 c -0.092702,-0.0357 -0.1897542,-0.0591 -0.2885764,-0.0694 0.056401,-0.01 0.098502,-0.0576 0.1013522,-0.11482 z m 6.0805742,-1.41641 c 0.038001,-10e-4 0.076002,0.003 0.1126225,0.0138 0.064101,0.0214 0.1442632,-0.0161 0.1709838,0.0587 0.026701,0.0748 -0.090902,0.16567 -0.1068924,0.19238 -0.016,0.0267 0.037401,0.0641 0.037401,0.0641 -0.019201,0.0216 -0.046001,0.0351 -0.074802,0.0374 -0.026701,0.0107 -0.1015122,0.0694 -0.074802,0.0694 0.026701,0 0.074802,-0.0214 0.026701,0.0374 -0.048101,0.0588 0.0213,0.20843 -0.048101,0.20843 -0.093202,0.0215 -0.1899742,0.0215 -0.2831263,0 0.053401,-0.0374 0.1121825,0.0106 0.1495833,-0.0374 v -0.048 h -0.026701 c -0.001,-0.0223 -0.0161,-0.0415 -0.037401,-0.0481 -0.069102,0.006 -0.136853,-0.0219 -0.181684,-0.0748 0.034401,-0.0131 0.072402,-0.0131 0.1067924,0 0.037401,0 0.026801,-0.0855 0.064201,-0.0855 h 0.032001 c 0.074802,-0.0962 0.2458754,-0.18164 0.2458754,-0.21904 0,-0.0374 -0.074902,-0.0374 -0.1229427,-0.0374 l -0.021401,-0.0213 c -0.069202,-0.008 -0.139123,-0.008 -0.2083346,0 -0.089202,0.0178 -0.1767139,0.0428 -0.2618258,0.0748 0.069902,-0.0524 0.1473533,-0.0939 0.2297251,-0.12293 0.058901,-0.0216 0.1197627,-0.0377 0.181684,-0.048 0.029501,-0.008 0.059901,-0.0128 0.090502,-0.0138 z m -5.9784619,0.77345 c -0.049201,10e-4 -0.098002,0.01 -0.1446232,0.0258 -0.2569457,0.13516 -0.48697075,0.31623 -0.67868498,0.53426 -0.1179026,0.13532 -0.25681567,0.25079 -0.41140908,0.34197 -0.091502,0.20434 -0.20085443,0.40025 -0.32668721,0.58545 0.25790569,-0.29158 0.55485225,-0.54613 0.88242948,-0.75644 -0.0481011,0 0,-0.0374 0,0 0.16030349,-0.0374 0.18695409,-0.15492 0.28312619,-0.31523 0.096202,-0.1603 0.2672159,-0.21908 0.3847685,-0.35266 0.005,0.0121 0.005,0.0254 0,0.0374 0.0118,0.006 0.025601,0.006 0.037401,0 0.048101,-0.0374 0.1068423,-0.0214 0.1442431,-0.0748 -0.054901,-0.0186 -0.1126624,-0.0273 -0.1706037,-0.0258 z m -0.6148736,0.74708 c -0.0509011,0.0143 -0.089802,0.0553 -0.10154222,0.10688 h 0.0267006 c 0.0220005,-0.009 0.0394009,-0.0261 0.0481011,-0.048 0.0107002,-0.0481 0.0374009,-0.0481 0.0374009,-0.0481 z m -0.99917203,0.82292 c -0.003000064,0.009 -0.003000064,0.018 0,0.0267 z m 1.99699403,0.14892 c -0.0107,0.002 -0.0253,0.0114 -0.052101,0.0221 -0.053401,0.0214 -0.1389031,0.0855 -0.1495833,0.0855 h 0.064101 v 0.0374 c 0.085502,-0.0374 0.181664,1e-5 0.2511355,-0.0748 -0.0214,-0.0481 -0.064101,-0.0106 -0.085502,-0.048 -0.0107,-0.0187 -0.0174,-0.0241 -0.028101,-0.0221 z m -0.45459,0.63972 c -0.0193,-3.4e-4 -0.038501,0.002 -0.057001,0.007 H 1.295462 c -0.1549534,0.0695 -0.35269777,0.064 -0.46491025,0.17623 v 0.0321 l -0.0374008,0.0267 c -0.0209005,0.0201 -0.0405009,0.0415 -0.0587013,0.0641 l -0.0320007,0.0268 0.0480011,-0.0375 c -0.0193004,0.0187 -0.0356008,0.0403 -0.0480011,0.0641 v 0.0267 0.0267 l -0.0855019,0.12284 0.0160004,0.0321 c 0.0203005,-0.0274 0.043601,-0.0525 0.0694015,-0.0748 l 0.19773436,-0.12293 h 0.0267006 0.0268006 c 0.0360008,-0.0379 0.0774017,-0.0703 0.12284269,-0.0962 l 0.1602835,-0.0801 0.080102,-0.10679 -0.032001,0.10679 c 0.1015323,-0.0588 0.2030144,-0.12816 0.3098769,-0.18693 -0.0162,-0.005 -0.033001,-0.007 -0.049901,-0.007 z m -0.073002,0.18913 v 0.0267 l -0.048101,0.0481 -0.090802,0.0855 h 0.058801 l 0.048101,-0.0428 c 0.036201,-0.0144 0.069002,-0.0362 0.096202,-0.0641 0.0118,-0.0101 0.021001,-0.023 0.026701,-0.0374 l -0.026701,-0.0161 z"
       id="rect1094"
       inkscape:connector-curvature="0"
       sodipodi:nodetypes="ccccccccccccccccsscccccccccccccccccccccccccccccccsccccccccccccccccccccccccccccccccccccccccccccccccssccccccccccccccccccccccscsccccccccccccscssccccsccccccccccccccsccccccccccccccccccccccscccccccccssccccccccscsccccccccccccccccccccccccccccccccccccccccccccccccccccccccccccccccccccccc" />
  </g>
</svg>
