<?xml version="1.0" encoding="UTF-8" standalone="no"?>
<!-- Created with Inkscape (http://www.inkscape.org/) -->

<svg
   xmlns:dc="http://purl.org/dc/elements/1.1/"
   xmlns:cc="http://creativecommons.org/ns#"
   xmlns:rdf="http://www.w3.org/1999/02/22-rdf-syntax-ns#"
   xmlns:svg="http://www.w3.org/2000/svg"
   xmlns="http://www.w3.org/2000/svg"
   xmlns:sodipodi="http://sodipodi.sourceforge.net/DTD/sodipodi-0.dtd"
   xmlns:inkscape="http://www.inkscape.org/namespaces/inkscape"
   width="32"
   height="32"
   viewBox="0 0 8.4666667 8.4666667"
   version="1.1"
   id="svg832"
   inkscape:version="0.92.5 (2060ec1f9f, 2020-04-08)"
   sodipodi:docname="synology.svg">
  <defs
     id="defs826" />
  <sodipodi:namedview
     id="base"
     pagecolor="#ffffff"
     bordercolor="#666666"
     borderopacity="1.0"
     inkscape:pageopacity="0.0"
     inkscape:pageshadow="2"
     inkscape:zoom="7.9195959"
     inkscape:cx="13.294037"
     inkscape:cy="-9.7708206"
     inkscape:document-units="mm"
     inkscape:current-layer="layer1"
     showgrid="false"
     units="px"
     inkscape:window-width="1920"
     inkscape:window-height="1013"
     inkscape:window-x="0"
     inkscape:window-y="0"
     inkscape:window-maximized="1" />
  <metadata
     id="metadata829">
    <rdf:RDF>
      <cc:Work
         rdf:about="">
        <dc:format>image/svg+xml</dc:format>
        <dc:type
           rdf:resource="http://purl.org/dc/dcmitype/StillImage" />
        <dc:title></dc:title>
      </cc:Work>
    </rdf:RDF>
  </metadata>
  <g
     inkscape:label="Calque 1"
     inkscape:groupmode="layer"
     id="layer1"
     transform="translate(0,-288.53333)">
    <path
       d="m 6.3136512,292.74073 c 0,-0.18862 0.047885,-0.37355 0.138892,-0.53889 l -0.0029,0.006 c 0.085451,-0.16535 0.2177301,-0.30053 0.3788448,-0.39128 l 0.0056,-10e-4 c 0.1640255,-0.0897 0.3500087,-0.13651 0.5375798,-0.13519 h 0.016138 c 0.3156161,0 0.574617,0.10185 0.7759447,0.30715 0.2010627,0.20397 0.3015945,0.46324 0.3029164,0.777 0,0.31562 -0.1018537,0.57594 -0.3058271,0.78547 -0.2039735,0.20821 -0.4603286,0.31138 -0.7703893,0.31138 -0.1997399,0 -0.387046,-0.0484 -0.5537161,-0.1336 l 0.0066,0.004 c -0.1664068,-0.0825 -0.3045059,-0.2135 -0.3939259,-0.37752 l -0.0013,-0.004 c -0.089681,-0.1664 -0.1346594,-0.36931 -0.1346594,-0.60874 z m 0.5619183,0.0304 c 0,0.20821 0.048415,0.368 0.1473582,0.47514 0.1928615,0.22197 0.5375787,0.22329 0.7291174,0 h 0.0013 c 0.0963,-0.10873 0.1447124,-0.26984 0.1447124,-0.47805 0,-0.20953 -0.048415,-0.36509 -0.1447124,-0.47408 -0.1928616,-0.22038 -0.5362559,-0.22197 -0.7291175,0 h -0.0013 c -0.09762,0.10899 -0.1473582,0.26746 -0.1473582,0.4754 z m -0.564829,1.03601 H 5.760728 v -1.0622 c 0,-0.2246 -0.010849,-0.36932 -0.034656,-0.43572 -0.021958,-0.0622 -0.061644,-0.11562 -0.1156113,-0.15424 h -0.0013 c -0.055024,-0.036 -0.118522,-0.0553 -0.1830735,-0.0553 h -0.013759 c -0.09524,0 -0.1849254,0.0288 -0.2563551,0.0802 h 0.0013 c -0.074343,0.0484 -0.1293679,0.11852 -0.1568821,0.20238 v 0.003 c -0.030427,0.0868 -0.042596,0.24524 -0.042596,0.47938 v 0.94262 H 4.4106913 v -2.08894 h 0.5071548 v 0.30609 c 0.1830735,-0.23175 0.4116504,-0.34604 0.6889055,-0.34604 h 0.0066 c 0.118521,0 0.2314876,0.0233 0.3346642,0.0664 l -0.0053,-0.001 c 0.091011,0.0371 0.167993,0.0934 0.227254,0.16642 l 0.0013,10e-4 c 0.049735,0.0664 0.086771,0.14312 0.1076751,0.22751 v 0.004 c 0.020368,0.0982 0.031747,0.21085 0.031747,0.32514 v 0.0455 z m -4.0469226,-2.08891 h 0.5828182 l 0.4986897,1.48257 0.484932,-1.48257 h 0.5680027 l -0.7291174,2.0093 -0.1333366,0.36509 c -0.037306,0.10054 -0.084391,0.19551 -0.1420666,0.28493 l 0.0042,-0.005 c -0.039946,0.0606 -0.089681,0.11297 -0.1489459,0.15555 l -0.0013,0.001 c -0.060584,0.04 -0.1293679,0.0717 -0.2039734,0.091 l -0.0056,0.001 c -0.081222,0.022 -0.1764591,0.0357 -0.2727574,0.0357 h -0.0085 c -0.108733,-10e-4 -0.2161432,-0.0138 -0.3209076,-0.037 l 0.0098,10e-4 -0.045505,-0.43414 c 0.068783,0.0167 0.1502688,0.0265 0.2328105,0.0275 0.1267222,0 0.2219626,-0.037 0.2825465,-0.11137 0.064553,-0.0855 0.1113778,-0.18202 0.138892,-0.28546 l 0.0013,-0.005 z m -2.2624887,1.15055 0.56218327,-0.0521 c 0.0341266,0.18863 0.10344156,0.32778 0.20661915,0.41587 0.10185373,0.0897 0.24233348,0.13361 0.42011558,0.13229 0.1859832,0 0.326727,-0.0384 0.4214385,-0.11721 0.09524,-0.0783 0.1420666,-0.17222 0.1420666,-0.27698 v -0.008 c 0,-0.0606 -0.020898,-0.11984 -0.059264,-0.16693 -0.039946,-0.0468 -0.108997,-0.0881 -0.208206,-0.12275 -0.067463,-0.0262 -0.2232854,-0.0659 -0.4632382,-0.12805 -0.3111186,-0.0762 -0.52778974,-0.17087 -0.65160225,-0.2841 -0.16825802,-0.14312 -0.2645573,-0.35424 -0.2645573,-0.57435 v -0.0114 c 0,-0.15132 0.0468253,-0.29207 0.12513537,-0.40927 l -0.0013,0.003 c 0.0867712,-0.13095 0.20952886,-0.2328 0.35424126,-0.29207 l 0.005599,-10e-4 c 0.15555931,-0.0648 0.34313038,-0.0992 0.56482892,-0.0992 0.3597967,0 0.6299095,0.0796 0.812982,0.2381 0.1820156,0.16112 0.276991,0.37223 0.2854572,0.63811 l -0.5817603,0.0193 c -0.026187,-0.14603 -0.076982,-0.25211 -0.1597919,-0.3172 -0.081222,-0.0646 -0.2039734,-0.0976 -0.3637663,-0.0976 -0.16825794,0 -0.30053559,0.0347 -0.39392417,0.10609 -0.0579342,0.0384 -0.0923307,0.10344 -0.0923307,0.17222 v 0.004 c 0,0.0717 0.0330667,0.13361 0.0854514,0.17356 v 0.001 c 0.0716928,0.0622 0.24947682,0.12672 0.53202327,0.19154 0.2812236,0.0659 0.4891646,0.13624 0.624353,0.20821 0.1309558,0.0701 0.238101,0.16931 0.3140293,0.29207 l 0.0029,0.003 c 0.075932,0.12089 0.1142885,0.27699 0.1142885,0.46006 0,0.17222 -0.050795,0.33361 -0.138892,0.46694 l 0.0013,-0.002 c -0.092331,0.14471 -0.2246093,0.25477 -0.3817554,0.32091 l -0.0056,10e-4 c -0.168258,0.0688 -0.376464,0.10476 -0.6256768,0.10476 -0.36217742,0 -0.64207818,-0.0844 -0.83626359,-0.2537 C 0.15291334,293.4357 0.0383599,293.19073 -2.3000167e-7,292.86823 Z"
       id="path2"
       inkscape:connector-curvature="0"
       style="fill:#000000;fill-opacity:1;stroke-width:0.26455662" />
  </g>
</svg>
