<?xml version="1.0" encoding="UTF-8" standalone="no"?>
<!-- Created with Inkscape (http://www.inkscape.org/) -->

<svg
   xmlns:dc="http://purl.org/dc/elements/1.1/"
   xmlns:cc="http://creativecommons.org/ns#"
   xmlns:rdf="http://www.w3.org/1999/02/22-rdf-syntax-ns#"
   xmlns:svg="http://www.w3.org/2000/svg"
   xmlns="http://www.w3.org/2000/svg"
   xmlns:xlink="http://www.w3.org/1999/xlink"
   xmlns:sodipodi="http://sodipodi.sourceforge.net/DTD/sodipodi-0.dtd"
   xmlns:inkscape="http://www.inkscape.org/namespaces/inkscape"
   width="32"
   height="32"
   viewBox="0 0 8.4666666 8.4666666"
   version="1.1"
   id="svg8"
   inkscape:version="0.92.5 (2060ec1f9f, 2020-04-08)"
   sodipodi:docname="vmware.svg">
  <defs
     id="defs2"><rect
   height="1237"
   width="956.2"
   y="-199.5"
   x="-193.8"
   id="vlpb" />

	
		
			
				<defs
   id="defs940">
					<rect
   id="rect984"
   x="-193.8"
   y="-199.5"
   width="956.20001"
   height="1237" />

				</defs>

				<clipPath
   id="vlpa">
					<use
   y="0"
   x="0"
   style="overflow:visible"
   width="100%"
   height="100%"
   overflow="visible"
   xlink:href="#vlpb"
   id="use942" />

				</clipPath>

				
			
		
	

					
					
					
					
					
					
					
				</defs>
  <sodipodi:namedview
     id="base"
     pagecolor="#ffffff"
     bordercolor="#666666"
     borderopacity="1.0"
     inkscape:pageopacity="0.0"
     inkscape:pageshadow="2"
     inkscape:zoom="11.2"
     inkscape:cx="22.097461"
     inkscape:cy="8.2583616"
     inkscape:document-units="mm"
     inkscape:current-layer="layer1"
     showgrid="false"
     units="px"
     inkscape:window-width="1600"
     inkscape:window-height="864"
     inkscape:window-x="0"
     inkscape:window-y="0"
     inkscape:window-maximized="1" />
  <metadata
     id="metadata5">
    <rdf:RDF>
      <cc:Work
         rdf:about="">
        <dc:format>image/svg+xml</dc:format>
        <dc:type
           rdf:resource="http://purl.org/dc/dcmitype/StillImage" />
        <dc:title></dc:title>
      </cc:Work>
    </rdf:RDF>
  </metadata>
  <g
     inkscape:label="Calque 1"
     inkscape:groupmode="layer"
     id="layer1"
     transform="translate(0,-288.53334)">
    <g
       id="g963"
       transform="matrix(0.15032828,0,0,-0.15032828,4.1525457,294.81061)"
       style="fill:#000000;fill-opacity:1">
						<path
   id="path961"
   d="m -21.72,23.2 c -0.708,1.552 -2.458,2.255 -4.092,1.529 -1.636,-0.727 -2.238,-2.541 -1.499,-4.094 l 6.861,-14.91 c 1.079,-2.337 2.216,-3.562 4.35,-3.562 2.28,0 3.274,1.334 4.352,3.562 0,0 5.984,13.03 6.044,13.17 0.061,0.138 0.253,0.559 0.862,0.555 0.515,-0.003 0.948,-0.414 0.948,-0.966 V 5.744 c 0,-1.964 1.089,-3.575 3.185,-3.575 2.094,0 3.226,1.611 3.226,3.575 v 10.43 c 0,2.011 1.441,3.316 3.405,3.316 1.964,0 3.271,-1.352 3.271,-3.316 V 5.744 c 0,-1.964 1.093,-3.575 3.185,-3.575 2.094,0 3.232,1.611 3.232,3.575 v 10.43 c 0,2.011 1.435,3.316 3.4,3.316 1.961,0 3.273,-1.352 3.273,-3.316 V 5.744 c 0,-1.964 1.092,-3.575 3.186,-3.575 2.093,0 3.229,1.611 3.229,3.575 v 11.87 c 0,4.361 -3.507,7.416 -7.727,7.416 -4.215,0 -6.855,-2.916 -6.855,-2.916 -1.403,1.819 -3.337,2.912 -6.61,2.912 -3.454,0 -6.477,-2.912 -6.477,-2.912 -1.404,1.819 -3.794,2.912 -5.773,2.912 -3.061,0 -5.492,-1.346 -6.975,-4.737 L -16.1,9.959 Z"
   inkscape:connector-curvature="0"
   style="fill:#000000;fill-opacity:1" />

					</g>
  </g>
</svg>
